<mxfile host="Electron" modified="2023-08-20T12:50:19.252Z" agent="Mozilla/5.0 (Macintosh; Intel Mac OS X 10_15_7) AppleWebKit/537.36 (KHTML, like Gecko) draw.io/21.6.8 Chrome/114.0.5735.289 Electron/25.5.0 Safari/537.36" etag="5l6e3xX-TCYLegqQpuDC" version="21.6.8" type="device">
  <diagram name="Page-1" id="L29uAnnjWPVrUt-YqEX5">
    <mxGraphModel dx="954" dy="727" grid="1" gridSize="10" guides="1" tooltips="1" connect="1" arrows="1" fold="1" page="1" pageScale="1" pageWidth="583" pageHeight="827" background="#ffffff" math="0" shadow="0">
      <root>
        <mxCell id="0" />
        <mxCell id="1" parent="0" />
        <mxCell id="RmpiIRelqIJ2PXOrt3_f-13" style="edgeStyle=orthogonalEdgeStyle;rounded=0;orthogonalLoop=1;jettySize=auto;html=1;entryX=0;entryY=0.5;entryDx=0;entryDy=0;entryPerimeter=0;startArrow=classic;startFill=1;strokeColor=#171717;" edge="1" parent="1" source="RmpiIRelqIJ2PXOrt3_f-1" target="RmpiIRelqIJ2PXOrt3_f-9">
          <mxGeometry relative="1" as="geometry" />
        </mxCell>
        <mxCell id="RmpiIRelqIJ2PXOrt3_f-1" value="&lt;b&gt;Raspberry Pi&lt;br&gt;&lt;/b&gt;&lt;br&gt;&lt;br&gt;&lt;br&gt;" style="rounded=1;whiteSpace=wrap;html=1;strokeColor=#666666;fillColor=#f5f5f5;fontColor=#333333;" vertex="1" parent="1">
          <mxGeometry x="226" y="152" width="160" height="90" as="geometry" />
        </mxCell>
        <mxCell id="RmpiIRelqIJ2PXOrt3_f-11" style="edgeStyle=orthogonalEdgeStyle;rounded=0;orthogonalLoop=1;jettySize=auto;html=1;entryX=0;entryY=0.5;entryDx=0;entryDy=0;strokeColor=#171717;" edge="1" parent="1" source="RmpiIRelqIJ2PXOrt3_f-5" target="RmpiIRelqIJ2PXOrt3_f-1">
          <mxGeometry relative="1" as="geometry" />
        </mxCell>
        <mxCell id="RmpiIRelqIJ2PXOrt3_f-5" value="" style="image;aspect=fixed;perimeter=ellipsePerimeter;html=1;align=center;shadow=0;dashed=0;fontColor=#4277BB;labelBackgroundColor=default;fontSize=12;spacingTop=3;image=img/lib/ibm/users/sensor.svg;strokeColor=#171717;" vertex="1" parent="1">
          <mxGeometry x="95" y="235" width="40" height="40" as="geometry" />
        </mxCell>
        <mxCell id="RmpiIRelqIJ2PXOrt3_f-10" style="edgeStyle=orthogonalEdgeStyle;rounded=0;orthogonalLoop=1;jettySize=auto;html=1;entryX=0;entryY=0.5;entryDx=0;entryDy=0;strokeColor=#171717;" edge="1" parent="1" source="RmpiIRelqIJ2PXOrt3_f-6" target="RmpiIRelqIJ2PXOrt3_f-1">
          <mxGeometry relative="1" as="geometry" />
        </mxCell>
        <mxCell id="RmpiIRelqIJ2PXOrt3_f-6" value="" style="image;aspect=fixed;perimeter=ellipsePerimeter;html=1;align=center;shadow=0;dashed=0;fontColor=#4277BB;labelBackgroundColor=default;fontSize=12;spacingTop=3;image=img/lib/ibm/users/sensor.svg;strokeColor=#171717;" vertex="1" parent="1">
          <mxGeometry x="95" y="115" width="40" height="40" as="geometry" />
        </mxCell>
        <mxCell id="RmpiIRelqIJ2PXOrt3_f-7" value="&amp;nbsp;&lt;span style=&quot;font-size: 11.5px; text-align: start; background-color: initial;&quot;&gt;DS18B20 &lt;br&gt;Temperature sensor&lt;/span&gt;&lt;span style=&quot;font-size: 11.5px; text-align: start; background-color: initial;&quot; class=&quot;Apple-converted-space&quot;&gt;&lt;br&gt;&lt;/span&gt;" style="text;html=1;align=center;verticalAlign=middle;resizable=0;points=[];autosize=1;strokeColor=none;fillColor=#f5f5f5;fontColor=#333333;" vertex="1" parent="1">
          <mxGeometry x="50" y="155" width="130" height="40" as="geometry" />
        </mxCell>
        <mxCell id="RmpiIRelqIJ2PXOrt3_f-8" value="&lt;span style=&quot;font-size: 11.5px; text-align: start; background-color: initial;&quot;&gt;DHT11&lt;br&gt;Humidity sensor&lt;/span&gt;&lt;span style=&quot;font-size: 11.5px; text-align: start; background-color: initial;&quot; class=&quot;Apple-converted-space&quot;&gt;&lt;br&gt;&lt;/span&gt;" style="text;html=1;align=center;verticalAlign=middle;resizable=0;points=[];autosize=1;strokeColor=none;fillColor=#f5f5f5;fontColor=#333333;" vertex="1" parent="1">
          <mxGeometry x="60" y="275" width="110" height="40" as="geometry" />
        </mxCell>
        <mxCell id="RmpiIRelqIJ2PXOrt3_f-9" value="" style="outlineConnect=0;dashed=0;verticalLabelPosition=bottom;verticalAlign=top;align=center;html=1;shape=mxgraph.aws3.workspaces;fillColor=#D16A28;gradientColor=#F58435;gradientDirection=north;strokeColor=#171717;" vertex="1" parent="1">
          <mxGeometry x="466" y="170" width="50" height="54" as="geometry" />
        </mxCell>
        <mxCell id="RmpiIRelqIJ2PXOrt3_f-12" value="Display on &lt;br&gt;Dashboard" style="text;html=1;align=center;verticalAlign=middle;resizable=0;points=[];autosize=1;strokeColor=none;fillColor=#f5f5f5;fontColor=#333333;" vertex="1" parent="1">
          <mxGeometry x="450" y="226" width="80" height="40" as="geometry" />
        </mxCell>
        <mxCell id="RmpiIRelqIJ2PXOrt3_f-15" style="edgeStyle=orthogonalEdgeStyle;rounded=0;orthogonalLoop=1;jettySize=auto;html=1;entryX=0.5;entryY=0;entryDx=0;entryDy=0;startArrow=classic;startFill=1;strokeColor=#171717;" edge="1" parent="1" source="RmpiIRelqIJ2PXOrt3_f-14" target="RmpiIRelqIJ2PXOrt3_f-1">
          <mxGeometry relative="1" as="geometry" />
        </mxCell>
        <mxCell id="RmpiIRelqIJ2PXOrt3_f-14" value="" style="image;points=[];aspect=fixed;html=1;align=center;shadow=0;dashed=0;image=img/lib/allied_telesis/storage/Datacenter_Server_Half_Rack_ToR.svg;strokeColor=#171717;" vertex="1" parent="1">
          <mxGeometry x="279.06" y="30" width="53.88" height="70" as="geometry" />
        </mxCell>
        <mxCell id="RmpiIRelqIJ2PXOrt3_f-16" value="" style="shape=image;verticalLabelPosition=bottom;labelBackgroundColor=default;verticalAlign=top;aspect=fixed;imageAspect=0;image=https://seeklogo.com/images/O/openweather-logo-3CE20F48B5-seeklogo.com.png;strokeColor=#171717;" vertex="1" parent="1">
          <mxGeometry x="336" y="30" width="102.99" height="46" as="geometry" />
        </mxCell>
        <mxCell id="RmpiIRelqIJ2PXOrt3_f-19" value="" style="shape=image;verticalLabelPosition=bottom;labelBackgroundColor=default;verticalAlign=top;aspect=fixed;imageAspect=0;image=https://cdn.freebiesupply.com/logos/large/2x/flask-logo-png-transparent.png;strokeColor=#171717;" vertex="1" parent="1">
          <mxGeometry x="314.87" y="186" width="31.13" height="40" as="geometry" />
        </mxCell>
        <mxCell id="RmpiIRelqIJ2PXOrt3_f-20" value="&lt;font color=&quot;#121212&quot;&gt;Receiver&lt;/font&gt;" style="rounded=1;whiteSpace=wrap;html=1;strokeColor=none;fillColor=#dae8fc;" vertex="1" parent="1">
          <mxGeometry x="226" y="182" width="70" height="30" as="geometry" />
        </mxCell>
        <mxCell id="RmpiIRelqIJ2PXOrt3_f-21" value="&lt;font color=&quot;#0f0f0f&quot; style=&quot;font-size: 10px;&quot;&gt;Web Services&lt;/font&gt;" style="text;html=1;align=center;verticalAlign=middle;resizable=0;points=[];autosize=1;strokeColor=none;fillColor=none;fontSize=10;" vertex="1" parent="1">
          <mxGeometry x="284.06" y="220" width="90" height="30" as="geometry" />
        </mxCell>
      </root>
    </mxGraphModel>
  </diagram>
</mxfile>
